<?xml version="1.0" encoding="UTF-8" standalone="no"?>
<!-- Created with Inkscape (http://www.inkscape.org/) -->

<svg width="417.65421mm" height="81.075806mm" viewBox="0 0 417.65421 81.075806" version="1.1" id="svg1" xmlns="http://www.w3.org/2000/svg" xmlns:svg="http://www.w3.org/2000/svg">
  <defs id="defs1">
    <clipPath clipPathUnits="userSpaceOnUse" id="clipPath30">
      <path d="M 0,1080 H 1920 V 0 H 0 Z" transform="translate(-473.84621,-459.00001)" id="path30" />
    </clipPath>
    <clipPath clipPathUnits="userSpaceOnUse" id="clipPath28">
      <path d="M 0,1080 H 1920 V 0 H 0 Z" transform="translate(-433.83591,-459.00001)" id="path28" />
    </clipPath>
    <clipPath clipPathUnits="userSpaceOnUse" id="clipPath26">
      <path d="M 0,1080 H 1920 V 0 H 0 Z" transform="translate(-393.99511,-459.00001)" id="path26" />
    </clipPath>
    <clipPath clipPathUnits="userSpaceOnUse" id="clipPath24">
      <path d="M 0,1080 H 1920 V 0 H 0 Z" transform="translate(-1488.3418,-461.47071)" id="path24" />
    </clipPath>
    <clipPath clipPathUnits="userSpaceOnUse" id="clipPath22">
      <path d="M 0,1080 H 1920 V 0 H 0 Z" transform="translate(-1398.085,-576.87011)" id="path22" />
    </clipPath>
    <clipPath clipPathUnits="userSpaceOnUse" id="clipPath20">
      <path d="M 0,1080 H 1920 V 0 H 0 Z" transform="translate(-1332.8418,-558.59861)" id="path20" />
    </clipPath>
    <clipPath clipPathUnits="userSpaceOnUse" id="clipPath18">
      <path d="M 0,1080 H 1920 V 0 H 0 Z" transform="translate(-1228.3564,-462.08201)" id="path18" />
    </clipPath>
    <clipPath clipPathUnits="userSpaceOnUse" id="clipPath16">
      <path d="M 0,1080 H 1920 V 0 H 0 Z" transform="translate(-1165.4454,-478.14941)" id="path16" />
    </clipPath>
    <clipPath clipPathUnits="userSpaceOnUse" id="clipPath14">
      <path d="M 0,1080 H 1920 V 0 H 0 Z" transform="translate(-1053.9678,-558.59861)" id="path14" />
    </clipPath>
    <clipPath clipPathUnits="userSpaceOnUse" id="clipPath12">
      <path d="M 0,1080 H 1920 V 0 H 0 Z" transform="translate(-971.06642,-574.17191)" id="path12" />
    </clipPath>
    <clipPath clipPathUnits="userSpaceOnUse" id="clipPath10">
      <path d="M 0,1080 H 1920 V 0 H 0 Z" transform="translate(-917.84132,-566.07961)" id="path10" />
    </clipPath>
    <clipPath clipPathUnits="userSpaceOnUse" id="clipPath8">
      <path d="M 0,1080 H 1920 V 0 H 0 Z" transform="translate(-815.56592,-631.32232)" id="path8" />
    </clipPath>
    <clipPath clipPathUnits="userSpaceOnUse" id="clipPath6">
      <path d="M 0,1080 H 1920 V 0 H 0 Z" transform="translate(-751.30524,-462.44921)" id="path6" />
    </clipPath>
    <clipPath clipPathUnits="userSpaceOnUse" id="clipPath4">
      <path d="M 0,1080 H 1920 V 0 H 0 Z" transform="translate(-693.79301,-484.64841)" id="path4" />
    </clipPath>
    <clipPath clipPathUnits="userSpaceOnUse" id="clipPath2">
      <path d="M 0,1080 H 1920 V 0 H 0 Z" transform="translate(-549.94381,-631.32232)" id="path2" />
    </clipPath>
  </defs>
  <g id="layer1" transform="translate(80.697927,-100.54167)">
    <path id="path1" d="m 0,0 c 0,3.102 0.489,5.274 1.471,6.5 0.98,1.225 2.698,1.963 5.15,2.207 2.453,0.244 6.784,0.367 13,0.367 v -64.752 c 3.595,3.106 7.886,5.478 12.877,7.115 4.986,1.632 9.934,2.451 14.838,2.451 9.973,0 16.717,-2.576 20.236,-7.725 3.515,-5.15 5.274,-13.37 5.274,-24.651 v -88.788 c 0,-1.474 -0.367,-2.455 -1.104,-2.943 -0.737,-0.491 -2.741,-0.778 -6.01,-0.862 -3.272,-0.084 -7.603,-0.12 -12.999,-0.12 v 87.315 c 0,6.216 -0.982,10.998 -2.943,14.352 -1.963,3.349 -5.807,5.026 -11.528,5.026 -3.108,0 -6.297,-0.531 -9.565,-1.593 -3.273,-1.066 -6.298,-2.742 -9.076,-5.03 v -96.145 c 0,-1.474 -0.288,-2.455 -0.858,-2.943 -0.575,-0.491 -2.453,-0.778 -5.641,-0.862 -3.19,-0.084 -7.565,-0.12 -13.122,-0.12 z" style="fill:#ffffff;fill-opacity:1;fill-rule:nonzero;stroke:none" transform="matrix(0.35277776,0,0,-0.35277776,-18.663451,104.08931)" clip-path="url(#clipPath2)" />
    <path id="path3" d="m 0,0 c 3.188,6.867 4.783,19.29 4.783,37.282 0,12.755 -0.615,22.48 -1.841,29.187 -1.225,6.702 -3.066,11.281 -5.519,13.737 -2.453,2.451 -5.725,3.676 -9.811,3.676 -6.051,0 -10.668,-3.433 -13.858,-10.299 -3.188,-6.871 -4.782,-19.298 -4.782,-37.282 0,-13.086 0.652,-22.975 1.962,-29.678 1.307,-6.706 3.189,-11.201 5.64,-13.493 2.453,-2.291 5.723,-3.433 9.813,-3.433 C -7.727,-10.303 -3.189,-6.87 0,0 m -35.933,-22.319 c -5.397,3.101 -9.529,9.277 -12.387,18.515 -2.863,9.238 -4.292,22.771 -4.292,40.596 0,42.511 13.651,63.77 40.961,63.77 8.99,0 16.188,-1.841 21.583,-5.518 5.398,-3.68 9.482,-10.14 12.264,-19.377 2.779,-9.242 4.17,-22.037 4.17,-38.385 0,-22.239 -3.395,-38.508 -10.178,-48.81 -6.789,-10.3 -16.887,-15.454 -30.292,-15.454 -9.16,0 -16.434,1.557 -21.829,4.663" style="fill:#ffffff;fill-opacity:1;fill-rule:nonzero;stroke:none" transform="matrix(0.35277776,0,0,-0.35277776,32.083349,155.8326)" clip-path="url(#clipPath4)" />
    <path id="path5" d="m 0,0 c -5.234,3.189 -9.198,9.197 -11.895,18.028 -2.698,8.83 -4.047,21.585 -4.047,38.264 0,26.324 4.086,43.985 12.263,52.979 8.176,8.991 18.721,13.49 31.641,13.49 5.887,0 10.793,-1.066 14.717,-3.19 3.925,-2.124 5.887,-4.743 5.887,-7.848 0,-3.761 -0.737,-7.442 -2.208,-11.035 -5.561,3.102 -11.367,4.659 -17.415,4.659 -7.196,0 -13.085,-3.313 -17.659,-9.932 C 6.705,88.792 4.415,75.67 4.415,56.045 c 0,-11.282 0.774,-20.072 2.332,-26.364 1.55,-6.3 3.924,-10.671 7.111,-13.122 3.19,-2.455 7.398,-3.681 12.634,-3.681 3.758,0 7.395,0.531 10.914,1.593 3.513,1.062 6.415,2.411 8.707,4.048 1.307,-4.743 1.962,-8.339 1.962,-10.79 0,-3.434 -2.617,-6.38 -7.849,-8.832 C 34.991,-3.554 28.454,-4.783 20.603,-4.783 12.1,-4.783 5.231,-3.187 0,0" style="fill:#ffffff;fill-opacity:1;fill-rule:nonzero;stroke:none" transform="matrix(0.35277776,0,0,-0.35277776,52.372384,163.66398)" clip-path="url(#clipPath6)" />
    <path id="path7" d="m 0,0 c 0,3.102 0.489,5.274 1.471,6.5 0.98,1.225 2.699,1.963 5.15,2.207 2.453,0.244 6.784,0.367 13,0.367 v -64.752 c 3.595,3.106 7.886,5.478 12.877,7.115 4.986,1.632 9.934,2.451 14.838,2.451 9.973,0 16.717,-2.576 20.236,-7.725 3.515,-5.15 5.274,-13.37 5.274,-24.651 v -88.788 c 0,-1.474 -0.367,-2.455 -1.104,-2.943 -0.737,-0.491 -2.741,-0.778 -6.01,-0.862 -3.272,-0.084 -7.603,-0.12 -12.999,-0.12 v 87.315 c 0,6.216 -0.982,10.998 -2.943,14.352 -1.963,3.349 -5.807,5.026 -11.528,5.026 -3.108,0 -6.297,-0.531 -9.565,-1.593 -3.273,-1.066 -6.298,-2.742 -9.076,-5.03 v -96.145 c 0,-1.474 -0.288,-2.455 -0.858,-2.943 -0.575,-0.491 -2.453,-0.778 -5.641,-0.862 -3.19,-0.084 -7.565,-0.12 -13.122,-0.12 z" style="fill:#ffffff;fill-opacity:1;fill-rule:nonzero;stroke:none" transform="matrix(0.35277776,0,0,-0.35277776,75.042122,104.08931)" clip-path="url(#clipPath8)" />
    <path id="path9" d="m 0,0 h -16.924 c 0,4.416 0.081,7.972 0.245,10.667 0.162,2.699 0.529,4.375 1.104,5.03 0.571,0.651 1.757,0.982 3.557,0.982 H 0 v 14.963 c 0,17.002 3.882,28.531 11.651,34.583 7.765,6.048 17.537,9.074 29.31,9.074 7.36,0 13,-0.902 16.924,-2.699 3.925,-1.8 5.887,-4.255 5.887,-7.357 0,-3.764 -0.736,-7.358 -2.208,-10.791 -4.744,1.961 -10.547,2.943 -17.413,2.943 -7.689,0 -13.699,-1.637 -18.028,-4.907 -4.336,-3.273 -6.5,-9.729 -6.5,-19.378 V 16.679 H 41.698 C 41.698,12.264 41.614,8.707 41.452,6.008 41.286,3.31 40.961,1.633 40.47,0.982 39.981,0.323 38.999,0 37.528,0 H 19.623 v -102.034 c 0,-0.822 -0.287,-1.68 -0.86,-2.575 -0.575,-0.902 -1.677,-1.349 -3.309,-1.349 H 0 Z" style="fill:#ffffff;fill-opacity:1;fill-rule:nonzero;stroke:none" transform="matrix(0.35277776,0,0,-0.35277776,111.12261,127.10548)" clip-path="url(#clipPath10)" />
    <path id="path11" d="m 0,0 c 10.461,7.361 21.583,11.038 33.355,11.038 6.048,0 10.426,-0.858 13.123,-2.575 2.698,-1.716 4.047,-4.292 4.047,-7.725 0,-4.092 -0.736,-7.936 -2.207,-11.529 -3.433,1.964 -7.357,2.942 -11.773,2.942 -6.377,0 -11.774,-1.88 -16.188,-5.641 l -0.246,-96.636 c 0,-1.474 -0.329,-2.455 -0.981,-2.942 -0.655,-0.492 -2.617,-0.779 -5.887,-0.863 -3.273,-0.084 -7.686,-0.12 -13.243,-0.12 z" style="fill:#ffffff;fill-opacity:1;fill-rule:nonzero;stroke:none" transform="matrix(0.35277776,0,0,-0.35277776,129.89924,124.2507)" clip-path="url(#clipPath12)" />
    <path id="path13" d="m 0,0 c -3.599,-6.132 -5.725,-17.046 -6.377,-32.743 16.188,0 27.388,0.977 33.604,2.942 0.816,3.76 1.225,8.666 1.225,14.715 C 28.288,-5.928 27.227,0.407 25.264,3.924 23.302,7.437 19.623,9.198 14.226,9.198 8.34,9.198 3.595,6.132 0,0 m 44.395,-73.95 c 1.143,-3.601 1.718,-8.096 1.718,-13.489 0,-3.764 -3.311,-6.955 -9.934,-9.569 -6.623,-2.611 -14.594,-3.925 -23.915,-3.925 -8.339,0 -15.329,1.558 -20.971,4.663 -5.641,3.102 -10.098,8.831 -13.367,17.17 -3.274,8.336 -4.906,20.193 -4.906,35.562 0,19.134 2.001,33.849 6.009,44.153 4.005,10.299 9.115,17.206 15.33,20.722 6.212,3.517 13.572,5.274 22.075,5.274 20.764,0 31.15,-13.082 31.15,-39.242 0,-13.086 -0.9,-23.713 -2.698,-31.885 -7.198,-1.473 -15.575,-2.495 -25.141,-3.066 -9.565,-0.575 -18.357,-0.858 -26.368,-0.858 0.327,-8.831 1.35,-15.618 3.066,-20.36 1.719,-4.743 4.17,-8.096 7.36,-10.056 3.187,-1.964 7.395,-2.942 12.631,-2.942 9.81,0 19.131,2.61 27.961,7.848" style="fill:#ffffff;fill-opacity:1;fill-rule:nonzero;stroke:none" transform="matrix(0.35277776,0,0,-0.35277776,159.14501,129.74461)" clip-path="url(#clipPath14)" />
    <path id="path15" d="M 0,0 C 3.021,2.208 5.273,5.354 6.746,9.441 V 86.457 C 3.801,88.745 0.04,89.89 -4.539,89.89 c -7.522,0 -13.242,-4.167 -17.166,-12.507 -3.924,-8.34 -5.889,-22.16 -5.889,-41.449 0,-15.21 1.677,-25.51 5.031,-30.908 3.349,-5.397 7.724,-8.091 13.122,-8.091 C -6.176,-3.233 -3.026,-2.207 0,0 m 6.746,-65.857 v 56.169 c -4.906,-7.199 -12.754,-10.795 -23.549,-10.795 -9.485,0 -17.374,3.924 -23.669,11.773 -6.296,7.852 -9.443,22.566 -9.443,44.152 0,25.342 4.577,43.614 13.738,54.82 9.155,11.197 21.338,16.799 36.544,16.799 5.557,0 10.384,-0.611 14.472,-1.841 4.084,-1.225 8.012,-3.15 11.772,-5.761 V -58.009 c 0,-3.761 -0.694,-6.088 -2.084,-6.99 -1.389,-0.898 -4.623,-1.429 -9.688,-1.593 -2.943,0 -5.642,0.243 -8.093,0.735" style="fill:#ffffff;fill-opacity:1;fill-rule:nonzero;stroke:none" transform="matrix(0.35277776,0,0,-0.35277776,198.47181,158.1253)" clip-path="url(#clipPath16)" />
    <path id="path17" d="m 0,0 c -5.233,2.945 -8.914,7.317 -11.038,13.121 -2.128,5.805 -3.186,13.529 -3.186,23.179 v 80.452 c 0,1.47 0.284,2.452 0.859,2.942 0.57,0.492 2.531,0.775 5.884,0.859 3.349,0.08 7.888,0.124 13.613,0.124 V 34.583 c 0,-8.34 1.106,-14.064 3.313,-17.166 2.204,-3.109 6.659,-4.663 13.366,-4.663 6.539,0 12.02,1.554 16.431,4.663 v 99.335 c 0,1.47 0.328,2.452 0.983,2.942 0.65,0.492 2.575,0.775 5.764,0.859 3.19,0.08 7.561,0.124 13.122,0.124 V 4.415 C 54.205,1.8 48.48,-0.328 41.941,-1.961 35.402,-3.594 28.859,-4.416 22.32,-4.416 12.671,-4.416 5.229,-2.942 0,0" style="fill:#ffffff;fill-opacity:1;fill-rule:nonzero;stroke:none" transform="matrix(0.35277776,0,0,-0.35277776,220.66543,163.79352)" clip-path="url(#clipPath18)" />
    <path id="path19" d="m 0,0 c -3.601,-6.132 -5.725,-17.046 -6.379,-32.743 16.188,0 27.39,0.977 33.605,2.942 0.814,3.76 1.225,8.666 1.225,14.715 C 28.288,-5.928 27.226,0.407 25.262,3.924 23.302,7.437 19.621,9.198 14.224,9.198 8.34,9.198 3.593,6.132 0,0 m 44.392,-73.95 c 1.146,-3.601 1.72,-8.096 1.72,-13.489 0,-3.764 -3.313,-6.955 -9.935,-9.569 -6.623,-2.611 -14.592,-3.925 -23.913,-3.925 -8.34,0 -15.33,1.558 -20.971,4.663 -5.641,3.102 -10.1,8.831 -13.369,17.17 -3.274,8.336 -4.906,20.193 -4.906,35.562 0,19.134 2.003,33.849 6.011,44.153 4.004,10.299 9.115,17.206 15.33,20.722 6.212,3.517 13.57,5.274 22.073,5.274 20.766,0 31.15,-13.082 31.15,-39.242 0,-13.086 -0.898,-23.713 -2.699,-31.885 -7.197,-1.473 -15.573,-2.495 -25.138,-3.066 -9.565,-0.575 -18.36,-0.858 -26.368,-0.858 0.327,-8.831 1.35,-15.618 3.066,-20.36 1.716,-4.743 4.167,-8.096 7.358,-10.056 3.189,-1.964 7.397,-2.942 12.631,-2.942 9.812,0 19.133,2.61 27.96,7.848" style="fill:#ffffff;fill-opacity:1;fill-rule:nonzero;stroke:none" transform="matrix(0.35277776,0,0,-0.35277776,257.52556,129.74461)" clip-path="url(#clipPath20)" />
    <path id="path21" d="m 0,0 c 5.065,2.288 11.281,4.252 18.639,5.889 7.357,1.632 14.139,2.451 20.359,2.451 12.751,0 21.661,-2.495 26.735,-7.482 5.063,-4.99 7.601,-13.449 7.601,-25.385 v -88.297 c 0,-1.474 -0.327,-2.455 -0.981,-2.943 -0.656,-0.491 -2.66,-0.778 -6.013,-0.862 -3.353,-0.084 -7.804,-0.12 -13.361,-0.12 v 86.337 c 0,8.172 -0.982,13.813 -2.947,16.923 -1.96,3.106 -5.884,4.658 -11.772,4.658 -2.943,0 -6.132,-0.367 -9.565,-1.101 -3.433,-0.735 -6.376,-1.84 -8.831,-3.314 v -99.578 c 0,-1.474 -0.327,-2.455 -0.982,-2.943 -0.654,-0.491 -2.614,-0.778 -5.884,-0.862 -3.273,-0.084 -7.605,-0.12 -12.998,-0.12 z" style="fill:#ffffff;fill-opacity:1;fill-rule:nonzero;stroke:none" transform="matrix(0.35277776,0,0,-0.35277776,280.5419,123.29883)" clip-path="url(#clipPath22)" />
    <path id="path23" d="m 0,0 c -0.491,0.734 -0.982,1.837 -1.469,3.31 -0.491,1.472 -0.738,3.189 -0.738,5.149 0,2.946 0.57,5.397 1.716,7.361 l 47.83,88.789 H 22.076 c -9.321,0 -22.775,-0.056 -22.775,0 -0.49,2.779 -0.527,4.659 -0.527,8.092 0,2.946 0.492,5.11 1.474,6.503 0.978,1.385 2.61,2.084 4.902,2.084 h 62.548 c 0.159,-0.168 0.527,-0.779 1.102,-1.84 0.571,-1.066 0.858,-2.495 0.858,-4.292 0,-3.11 -0.734,-6.3 -2.208,-9.565 L 20.851,17.046 H 42.68 c 10.791,0 26.343,0.03 26.416,0.025 -0.02,0 0.071,-1.741 0.071,-6.157 0,-4.415 -0.531,-7.564 -1.593,-9.445 -1.065,-1.88 -3.149,-2.819 -6.256,-2.819 H 0.982 C 0.818,-1.189 0.491,-0.738 0,0" style="fill:#ffffff;fill-opacity:1;fill-rule:nonzero;stroke:none" transform="matrix(0.35277776,0,0,-0.35277776,312.3825,164.00918)" clip-path="url(#clipPath24)" />
    <path id="path25" d="m 0,0 h -14.77 c -2.896,0 -5.238,2.401 -5.123,5.295 C -17.104,75.635 40.992,132 112.005,132 v -14.748 c 0,-2.89 -2.288,-5.236 -5.175,-5.368 C 47.462,109.171 0,60.023 0,0" style="fill:#ffffff;fill-opacity:1;fill-rule:nonzero;stroke:none" transform="matrix(0.35277776,0,0,-0.35277776,-73.678686,164.88078)" clip-path="url(#clipPath26)" />
    <path id="path27" d="m 0,0 h -14.723 c -2.956,0 -5.289,2.496 -5.116,5.447 2.828,48.29 43.013,86.713 92.003,86.713 V 77.348 c 0,-2.819 -2.178,-5.164 -4.991,-5.358 C 29.7,69.419 0,38.112 0,0" style="fill:#ffffff;fill-opacity:1;fill-rule:nonzero;stroke:none" transform="matrix(0.35277776,0,0,-0.35277776,-59.623736,164.88078)" clip-path="url(#clipPath28)" />
    <path id="path29" d="m 0,0 h -14.596 c -3.068,0 -5.425,2.677 -5.09,5.727 2.861,26.07 25.018,46.422 51.84,46.422 V 37.141 c 0,-2.645 -1.917,-4.938 -4.536,-5.309 C 12.027,29.622 0,16.189 0,0" style="fill:#ffffff;fill-opacity:1;fill-rule:nonzero;stroke:none" transform="matrix(0.35277776,0,0,-0.35277776,-45.508994,164.88078)" clip-path="url(#clipPath30)" />
  </g>
</svg>
