<?xml version="1.0" encoding="UTF-8" standalone="no"?>
<svg
   id="Ebene_2"
   viewBox="0 0 39.240002 43.860001"
   version="1.1"
   sodipodi:docname="filter.svg"
   width="39.240002"
   height="43.860001"
   inkscape:version="1.4 (86a8ad7, 2024-10-11)"
   xmlns:inkscape="http://www.inkscape.org/namespaces/inkscape"
   xmlns:sodipodi="http://sodipodi.sourceforge.net/DTD/sodipodi-0.dtd"
   xmlns="http://www.w3.org/2000/svg"
   xmlns:svg="http://www.w3.org/2000/svg">
  <sodipodi:namedview
     id="namedview7"
     pagecolor="#505050"
     bordercolor="#eeeeee"
     borderopacity="1"
     inkscape:showpageshadow="0"
     inkscape:pageopacity="0"
     inkscape:pagecheckerboard="0"
     inkscape:deskcolor="#505050"
     inkscape:zoom="12.642857"
     inkscape:cx="19.694915"
     inkscape:cy="21.949153"
     inkscape:window-width="1920"
     inkscape:window-height="1129"
     inkscape:window-x="-8"
     inkscape:window-y="-8"
     inkscape:window-maximized="1"
     inkscape:current-layer="Ebene_2" />
  <defs
     id="defs1">
    <style
       id="style1">.cls-1{fill:none;stroke:#000;stroke-linecap:round;stroke-linejoin:round;stroke-width:4px;}</style>
  </defs>
  <path
     d="m 24.37,6.5000003 c 0,-0.72 0.19,-1.39 0.49,-2 H 2 c -1.1,0 -2,0.9 -2,2 0,1.1 0.9,2 2,2 h 22.86 c -0.3,-0.6 -0.49,-1.28 -0.49,-2 z"
     id="path1" />
  <path
     d="m 37.24,4.5000003 h -4.36 c 0.3,0.6 0.49,1.28 0.49,2 0,0.72 -0.19,1.4 -0.49,2 h 4.36 c 1.1,0 2,-0.9 2,-2 0,-1.1 -0.9,-2 -2,-2 z"
     id="path2" />
  <path
     d="M 4.87,21.03 C 4.87,20.4 5,19.81 5.23,19.27 H 2 c -1.1,0 -2,0.9 -2,2 0,1.1 0.9,2 2,2 H 5.49 C 5.11,22.61 4.87,21.85 4.87,21.03 Z"
     id="path3" />
  <path
     d="M 37.24,19.26 H 13.51 c 0.23,0.54 0.36,1.14 0.36,1.76 0,0.82 -0.23,1.57 -0.62,2.24 h 23.99 c 1.1,0 2,-0.9 2,-2 0,-1.1 -0.9,-2 -2,-2 z"
     id="path4" />
  <circle
     class="cls-1"
     cx="22.120001"
     cy="37.360001"
     r="4.5"
     id="circle4" />
  <circle
     class="cls-1"
     cx="9.6199999"
     cy="21.029999"
     r="4.5"
     id="circle5" />
  <circle
     class="cls-1"
     cx="29.120001"
     cy="6.5"
     r="4.5"
     id="circle6" />
  <path
     d="m 17.62,37.36 c 0,-0.72 0.19,-1.4 0.49,-2 H 2 c -1.1,0 -2,0.9 -2,2 0,1.1 0.9,2 2,2 h 16.11 c -0.3,-0.6 -0.49,-1.28 -0.49,-2 z"
     id="path6" />
  <path
     d="M 37.24,35.36 H 26.13 c 0.3,0.6 0.49,1.28 0.49,2 0,0.72 -0.19,1.4 -0.49,2 h 11.11 c 1.1,0 2,-0.9 2,-2 0,-1.1 -0.9,-2 -2,-2 z"
     id="path7" />
</svg>
