<svg xmlns="http://www.w3.org/2000/svg" id="Ebene_2" width="39.24" height="43.86" version="1.1">
  <defs id="defs1">
    <style id="style1">
      .cls-1{fill:none;stroke:#000;stroke-linecap:round;stroke-linejoin:round;stroke-width:4px}
    </style>
  </defs>
  <path id="path1" d="M24.37 6.5c0-.72.19-1.39.49-2H2c-1.1 0-2 .9-2 2s.9 2 2 2h22.86c-.3-.6-.49-1.28-.49-2"/>
  <path id="path2" d="M37.24 4.5h-4.36c.3.6.49 1.28.49 2s-.19 1.4-.49 2h4.36c1.1 0 2-.9 2-2s-.9-2-2-2"/>
  <path id="path3" d="M4.87 21.03c0-.63.13-1.22.36-1.76H2c-1.1 0-2 .9-2 2s.9 2 2 2h3.49c-.38-.66-.62-1.42-.62-2.24"/>
  <path id="path4" d="M37.24 19.26H13.51a4.407 4.407 0 0 1-.26 4h23.99c1.1 0 2-.9 2-2s-.9-2-2-2"/>
  <circle id="circle4" cx="22.12" cy="37.36" r="4.5" class="cls-1"/>
  <circle id="circle5" cx="9.62" cy="21.03" r="4.5" class="cls-1"/>
  <circle id="circle6" cx="29.12" cy="6.5" r="4.5" class="cls-1"/>
  <path id="path6" d="M17.62 37.36c0-.72.19-1.4.49-2H2c-1.1 0-2 .9-2 2s.9 2 2 2h16.11c-.3-.6-.49-1.28-.49-2"/>
  <path id="path7" d="M37.24 35.36H26.13c.3.6.49 1.28.49 2s-.19 1.4-.49 2h11.11c1.1 0 2-.9 2-2s-.9-2-2-2"/>
</svg>
