<?xml version="1.0" encoding="UTF-8"?><svg id="Ebene_2" xmlns="http://www.w3.org/2000/svg" viewBox="0 0 70 70"><defs><style>.cls-1{fill:none;stroke:#000;stroke-linecap:round;stroke-linejoin:round;stroke-width:4px;}</style></defs><path d="M39.75,19.57c0-.72.19-1.39.49-2h-22.86c-1.1,0-2,.9-2,2s.9,2,2,2h22.86c-.3-.6-.49-1.28-.49-2Z"/><path d="M52.62,17.57h-4.36c.3.6.49,1.28.49,2s-.19,1.4-.49,2h4.36c1.1,0,2-.9,2-2s-.9-2-2-2Z"/><path d="M20.25,34.1c0-.63.13-1.22.36-1.76h-3.23c-1.1,0-2,.9-2,2s.9,2,2,2h3.49c-.38-.66-.62-1.42-.62-2.24Z"/><path d="M52.62,32.33h-23.73c.23.54.36,1.14.36,1.76,0,.82-.23,1.57-.62,2.24h23.99c1.1,0,2-.9,2-2s-.9-2-2-2Z"/><circle class="cls-1" cx="37.5" cy="50.43" r="4.5"/><circle class="cls-1" cx="25" cy="34.1" r="4.5"/><circle class="cls-1" cx="44.5" cy="19.57" r="4.5"/><path d="M33,50.43c0-.72.19-1.4.49-2h-16.11c-1.1,0-2,.9-2,2s.9,2,2,2h16.11c-.3-.6-.49-1.28-.49-2Z"/><path d="M52.62,48.43h-11.11c.3.6.49,1.28.49,2s-.19,1.4-.49,2h11.11c1.1,0,2-.9,2-2s-.9-2-2-2Z"/></svg>