<?xml version="1.0" encoding="UTF-8"?><svg id="Ebene_2" xmlns="http://www.w3.org/2000/svg" viewBox="0 0 57.12 46.58"><defs><style>.cls-1{fill:#010101;}</style></defs><path class="cls-1" d="M55.56.68c-.6-.13-14.73-3.21-23.23,4.9-7.32,6.99-6.05,15.74-2.81,19.72.03.03.05.06.08.1-1.46,1.63-2.61,3.46-3.44,5.44l-3.72-3.36c.96-1.63,1.39-3.53,1.19-5.42-.23-2.23-1.45-5.58-5.95-8.91C10.18,7.61,1.76,10.3,1.4,10.41c-.78.26-1.32.96-1.37,1.78-.03.44-.56,10.77,4.41,15.63,3.59,3.5,7.04,4.29,9.41,4.29.13,0,.26,0,.38,0,1.97-.07,3.88-.7,5.44-1.73l5.26,4.75c-.17,1.03-.27,2.09-.27,3.15v6.3c0,1.1.9,2,2,2s2-.9,2-2v-6.3c0-3.75,1.36-7.31,3.83-10.12,2.39,1.72,4.79,2.25,6.82,2.25.61,0,1.19-.05,1.72-.12,5.64-.81,10.79-5.46,12.49-9.5,3.35-7.91,3.57-17.7,3.58-18.11.02-.95-.63-1.78-1.56-1.99ZM14.09,28.11c-2.28.09-4.66-1.01-6.86-3.15-2.57-2.5-3.19-7.93-3.24-11.06,2.27-.4,7-.71,11.3,2.47,2.63,1.95,4.14,4.06,4.35,6.1.09.87-.07,1.61-.3,2.22l-3.66-3.31c-.82-.74-2.08-.67-2.82.14-.74.82-.68,2.08.15,2.82l3.53,3.19c-.7.31-1.52.53-2.44.57ZM49.85,19.22c-1.06,2.51-5.01,6.48-9.37,7.1-1.88.27-3.63-.12-5.23-1.14l10.48-11.21c.75-.81.71-2.07-.1-2.83-.8-.76-2.07-.71-2.83.1l-10.45,11.18c-2.06-2.94-2.53-8.92,2.73-13.94,5.44-5.19,14.29-4.66,17.94-4.17-.21,3.05-.92,9.58-3.18,14.91Z"/></svg>