<?xml version="1.0" encoding="UTF-8"?><svg id="Ebene_2" xmlns="http://www.w3.org/2000/svg" viewBox="0 0 47.79 49.72"><path d="M47.2,46.3l-11.47-11.47c3.53-3.75,5.69-8.81,5.63-14.36-.06-5.52-2.26-10.7-6.2-14.56C31.21,2.04,26.01-.04,20.48,0,9.07.11-.11,9.49,0,20.89c.11,11.33,9.37,20.47,20.68,20.47.07,0,.14,0,.21,0,4.42-.04,8.49-1.49,11.83-3.89l11.65,11.65c.39.39.9.59,1.41.59s1.02-.2,1.41-.59c.78-.78.78-2.05,0-2.83ZM20.85,37.36c-9.21.08-16.76-7.32-16.85-16.51-.09-9.2,7.32-16.76,16.51-16.85,4.48-.08,8.66,1.65,11.84,4.77,3.18,3.12,4.96,7.29,5,11.75.09,9.2-7.32,16.76-16.51,16.85Z"/><path d="M27.49,22.68h-13.62c-1.1,0-2-.9-2-2s.9-2,2-2h13.62c1.1,0,2,.9,2,2s-.9,2-2,2Z"/></svg>