<?xml version="1.0" encoding="UTF-8"?>
<svg id="Ebene_2" xmlns="http://www.w3.org/2000/svg" viewBox="0 0 47.79 49.72">
  <path d="M47.2,46.3l-11.46-11.46c3.68-3.91,5.68-8.98,5.63-14.36-.06-5.52-2.26-10.7-6.2-14.56C31.21,2.04,26-.04,20.48,0,9.07.11-.11,9.49,0,20.89c.11,11.33,9.37,20.47,20.68,20.47.07,0,.14,0,.21,0,4.31-.04,8.4-1.41,11.83-3.88l11.65,11.65c.39.39.9.59,1.41.59s1.02-.2,1.41-.59c.78-.78.78-2.05,0-2.83ZM20.85,37.36c-9.2.08-16.76-7.32-16.85-16.51-.09-9.2,7.32-16.76,16.51-16.85,4.5-.08,8.66,1.65,11.84,4.77,3.18,3.12,4.96,7.29,5,11.75.04,4.46-1.65,8.66-4.77,11.84-3.12,3.18-7.29,4.96-11.75,5Z"/>
  <path d="M27.49,18.68h-4.81v-4.81c0-1.1-.9-2-2-2s-2,.9-2,2v4.81h-4.81c-1.1,0-2,.9-2,2s.9,2,2,2h4.81v4.81c0,1.1.9,2,2,2s2-.9,2-2v-4.81h4.81c1.1,0,2-.9,2-2s-.9-2-2-2Z"/>
</svg>
