<svg viewBox="0 0 112.99 52.96292735042735" xmlns="http://www.w3.org/2000/svg" id="Ebene_1" style="max-height:500px" width="112.99" height="52.96292735042735">
  <path d="M22.73,40.05c-.67,0-1.22-.22-1.66-.67-.43-.45-.65-1.01-.65-1.67v-19.38l.5.85-5.34,3.76c-.34.28-.76.42-1.26.42-.58,0-1.08-.23-1.51-.69-.43-.46-.65-1.01-.65-1.65,0-.82.37-1.49,1.12-2l7.89-5.37c.24-.18.51-.31.81-.38.3-.08.58-.12.85-.12.7,0,1.25.22,1.66.67.41.45.61,1.01.61,1.67v22.22c0,.67-.22,1.22-.67,1.67-.44.45-1.01.67-1.71.67Z"/>
  <path d="M38.86,40.44c-2.06,0-3.81-.58-5.24-1.75-1.43-1.17-2.51-2.79-3.26-4.88-.74-2.09-1.12-4.49-1.12-7.21s.37-5.15,1.12-7.23c.74-2.08,1.83-3.7,3.26-4.86,1.43-1.17,3.17-1.75,5.24-1.75s3.81.58,5.24,1.75c1.43,1.17,2.51,2.79,3.26,4.86.74,2.08,1.12,4.49,1.12,7.23s-.37,5.12-1.12,7.21c-.74,2.09-1.83,3.72-3.26,4.88-1.43,1.17-3.17,1.75-5.24,1.75ZM38.86,35.82c1.01,0,1.88-.34,2.61-1.02.73-.68,1.3-1.7,1.71-3.08.41-1.37.61-3.08.61-5.13s-.2-3.79-.61-5.15c-.41-1.36-.98-2.38-1.71-3.06-.73-.68-1.6-1.02-2.61-1.02s-1.85.34-2.59,1.02c-.74.68-1.32,1.7-1.73,3.06-.41,1.36-.61,3.08-.61,5.15s.2,3.76.61,5.13c.41,1.37.98,2.4,1.73,3.08.74.68,1.61,1.02,2.59,1.02Z"/>
  <path d="M60.6,40.44c-2.06,0-3.81-.58-5.24-1.75-1.43-1.17-2.51-2.79-3.26-4.88-.74-2.09-1.12-4.49-1.12-7.21s.37-5.15,1.12-7.23c.74-2.08,1.83-3.7,3.26-4.86,1.43-1.17,3.17-1.75,5.24-1.75s3.81.58,5.24,1.75c1.43,1.17,2.51,2.79,3.26,4.86.74,2.08,1.12,4.49,1.12,7.23s-.37,5.12-1.12,7.21c-.74,2.09-1.83,3.72-3.26,4.88-1.43,1.17-3.17,1.75-5.24,1.75ZM60.6,35.82c1.01,0,1.88-.34,2.61-1.02.73-.68,1.3-1.7,1.71-3.08.41-1.37.61-3.08.61-5.13s-.2-3.79-.61-5.15c-.41-1.36-.98-2.38-1.71-3.06-.73-.68-1.6-1.02-2.61-1.02s-1.85.34-2.59,1.02c-.74.68-1.32,1.7-1.73,3.06-.41,1.36-.61,3.08-.61,5.15s.2,3.76.61,5.13c.41,1.37.98,2.4,1.73,3.08.74.68,1.61,1.02,2.59,1.02Z"/>
  <path d="M78.64,27.75c-1.15,0-2.17-.33-3.06-1-.89-.67-1.58-1.56-2.09-2.69s-.76-2.38-.76-3.77.25-2.68.76-3.81,1.2-2.02,2.09-2.69c.89-.67,1.91-1,3.06-1s2.2.33,3.08,1c.88.67,1.56,1.56,2.05,2.69.49,1.13.74,2.4.74,3.81s-.26,2.64-.79,3.77c-.53,1.13-1.23,2.03-2.11,2.69-.88.67-1.87,1-2.97,1ZM78.64,24.33c.72,0,1.28-.38,1.67-1.15.4-.77.59-1.73.59-2.88s-.19-2.12-.58-2.88-.95-1.15-1.69-1.15-1.28.38-1.69,1.15c-.41.77-.61,1.73-.61,2.88s.2,2.11.59,2.88c.4.77.97,1.15,1.71,1.15ZM79.07,40.13c-.38,0-.79-.17-1.22-.52-.43-.35-.65-.8-.65-1.36,0-.33.12-.72.36-1.15l14.33-23.11c.43-.62.92-.92,1.48-.92.41,0,.82.17,1.24.5.42.33.63.79.63,1.38,0,.33-.12.72-.36,1.15l-14.33,23.11c-.43.62-.92.92-1.48.92ZM94.08,40.44c-1.1,0-2.1-.33-2.99-1-.89-.67-1.6-1.56-2.12-2.69-.53-1.13-.79-2.38-.79-3.77s.25-2.68.76-3.81c.5-1.13,1.2-2.02,2.09-2.69.89-.67,1.91-1,3.06-1s2.2.33,3.08,1c.88.67,1.56,1.56,2.05,2.69.49,1.13.74,2.4.74,3.81s-.26,2.64-.79,3.77c-.53,1.13-1.23,2.03-2.11,2.69-.88.67-1.87,1-2.97,1ZM94.08,37.01c.72,0,1.28-.38,1.67-1.15.4-.77.59-1.73.59-2.88s-.19-2.11-.58-2.88c-.38-.77-.95-1.15-1.69-1.15s-1.28.38-1.69,1.15c-.41.77-.61,1.73-.61,2.88s.2,2.11.59,2.88c.4.77.97,1.15,1.71,1.15Z"/>
  <path d="M86.56,52.85H26.43C11.85,52.85,0,41,0,26.42S11.85,0,26.43,0h60.14c14.57,0,26.43,11.85,26.43,26.42s-11.85,26.43-26.43,26.43ZM26.43,4C14.06,4,4,14.06,4,26.42s10.06,22.43,22.43,22.43h60.14c12.37,0,22.43-10.06,22.43-22.43s-10.06-22.42-22.43-22.42H26.43Z"/>
</svg>
